<?xml version="1.0" standalone="no"?>
<!DOCTYPE svg PUBLIC "-//W3C//DTD SVG 20010904//EN"
 "http://www.w3.org/TR/2001/REC-SVG-20010904/DTD/svg10.dtd">
<svg version="1.0" xmlns="#38C5CA_003/svg"
 width="800.000000pt" height="800.000000pt" viewBox="0 0 800.000000 800.000000"
 preserveAspectRatio="xMidYMid meet">
<metadata>
Created by potrace 1.16, written by Peter Selinger 2001-2019
</metadata>
<g transform="translate(0.000000,800.000000) scale(0.100000,-0.100000)"
fill="#000000" stroke="none">
<path d="M0 4000 l0 -4000 4000 0 4000 0 0 4000 0 4000 -4000 0 -4000 0 0
-4000z m5385 3485 c131 -35 246 -129 306 -252 33 -66 34 -72 34 -193 0 -120
-2 -128 -32 -193 -58 -122 -177 -222 -305 -257 -72 -19 -220 -9 -288 20 -75
32 -153 91 -197 150 l-37 50 -974 0 c-1111 0 -1171 -3 -1397 -77 -282 -92
-549 -279 -726 -508 -167 -216 -260 -430 -304 -704 -22 -130 -16 -393 10 -516
54 -257 148 -461 301 -651 227 -282 516 -459 889 -545 l100 -23 1395 -6 1395
-5 96 -27 c302 -83 527 -259 681 -532 29 -52 41 -64 100 -94 91 -45 168 -125
215 -219 33 -67 38 -86 41 -168 7 -151 -38 -264 -141 -362 -257 -243 -672
-121 -762 224 -35 134 1 296 90 401 24 28 25 34 13 56 -24 46 -121 137 -188
176 -36 21 -96 49 -135 62 l-70 23 -1400 6 c-1370 5 -1402 6 -1495 26 -209 46
-330 87 -505 173 -228 111 -379 220 -553 400 -325 335 -511 748 -554 1232 -39
453 109 953 397 1333 283 374 693 636 1157 739 193 43 286 46 1341 46 704 0
997 3 997 11 0 19 112 128 159 155 103 60 233 78 346 49z m-2295 -902 c102
-27 196 -96 255 -186 l17 -27 1478 0 1477 0 45 58 c168 217 504 233 695 34
110 -116 157 -285 119 -428 -36 -134 -140 -259 -263 -316 -57 -27 -83 -32
-164 -36 -161 -7 -288 48 -382 166 l-51 62 -1476 0 -1476 0 -37 -50 c-110
-148 -322 -217 -503 -164 -97 28 -227 132 -271 218 -73 140 -72 313 2 456 27
51 112 137 169 169 119 67 232 81 366 44z m-865 -839 c294 -76 438 -392 302
-660 -14 -28 -38 -65 -52 -83 l-27 -31 22 -34 c32 -53 124 -132 204 -176 136
-75 62 -72 1456 -71 768 1 1300 -2 1388 -9 434 -31 826 -191 1158 -471 340
-287 583 -713 659 -1154 27 -158 29 -187 29 -365 -2 -314 -67 -587 -210 -871
-99 -198 -223 -366 -391 -530 -284 -278 -616 -449 -1033 -531 -115 -22 -119
-23 -1192 -26 l-1078 -3 -30 -44 c-122 -177 -379 -236 -586 -134 -73 36 -165
132 -205 214 -33 68 -34 73 -34 195 0 116 2 129 28 184 77 165 212 261 392
281 68 8 166 -11 241 -47 52 -24 170 -128 179 -159 6 -19 22 -20 1083 -16
1066 3 1078 3 1170 25 209 49 380 122 547 235 121 82 312 274 394 397 343 515
345 1173 5 1685 -224 339 -573 567 -994 651 -76 16 -224 18 -1475 24 -1047 5
-1401 9 -1435 18 -285 78 -481 204 -640 412 -32 42 -71 103 -88 136 -28 56
-36 63 -99 94 -122 60 -209 168 -244 302 -23 86 -24 132 -4 217 59 249 318
409 560 345z m-480 -3436 c77 -19 155 -70 224 -145 l68 -73 1471 0 1472 0 18
22 c119 148 228 207 387 209 100 2 172 -18 250 -69 147 -95 226 -257 212 -433
-23 -274 -305 -473 -572 -404 -104 28 -216 105 -269 188 l-18 27 -1482 0
-1481 0 -45 -57 c-206 -259 -610 -217 -763 78 -186 357 135 757 528 657z"/>
</g>
</svg>
