<?xml version="1.0" standalone="no"?>
<!DOCTYPE svg PUBLIC "-//W3C//DTD SVG 20010904//EN"
 "http://www.w3.org/TR/2001/REC-SVG-20010904/DTD/svg10.dtd">
<svg version="1.0" xmlns="http://www.w3.org/2000/svg"
 width="800.000000pt" height="800.000000pt" viewBox="0 0 800.000000 800.000000"
 preserveAspectRatio="xMidYMid meet">
<metadata>
Created by potrace 1.16, written by Peter Selinger 2001-2019
</metadata>
<g transform="translate(0.000000,800.000000) scale(0.100000,-0.100000)"
fill="#000000" stroke="none">
<path d="M0 4000 l0 -4000 4000 0 4000 0 0 4000 0 4000 -4000 0 -4000 0 0
-4000z m5249 3481 c83 -26 137 -60 198 -123 202 -214 164 -544 -82 -710 -194
-131 -474 -81 -620 111 l-39 51 -941 0 c-939 0 -1113 -5 -1261 -35 -286 -58
-550 -198 -758 -403 -243 -240 -382 -513 -437 -862 -17 -107 -17 -341 0 -440
51 -295 147 -512 323 -731 212 -264 529 -457 856 -523 162 -33 275 -36 1545
-36 853 0 1302 -4 1350 -11 89 -13 215 -50 300 -88 110 -49 207 -121 317 -232
82 -83 117 -127 158 -201 53 -94 53 -95 128 -133 285 -145 337 -519 102 -740
-78 -74 -122 -99 -210 -120 -83 -20 -130 -19 -216 4 -245 64 -392 299 -341
543 13 61 56 151 93 195 14 17 26 36 26 41 0 20 -113 134 -173 174 -33 22 -98
55 -146 72 l-86 31 -1311 1 c-721 0 -1354 4 -1405 8 -301 23 -649 145 -908
318 -335 224 -609 560 -746 916 -100 259 -139 474 -138 747 2 431 131 818 391
1174 72 98 258 288 360 368 289 226 643 371 1007 413 56 6 479 10 1110 10
l1020 1 35 50 c103 147 319 216 499 160z m-2303 -899 c86 -27 166 -82 220
-152 l47 -60 1473 0 1472 0 38 51 c97 133 274 205 439 179 181 -28 329 -158
381 -336 12 -43 15 -82 12 -153 -4 -82 -10 -106 -37 -163 -80 -168 -235 -269
-416 -271 -144 -1 -281 61 -365 166 l-45 57 -1481 0 -1481 0 -31 -44 c-92
-127 -282 -203 -441 -176 -228 38 -391 228 -391 455 0 140 46 251 143 342 126
119 294 157 463 105z m-874 -836 c183 -44 322 -200 350 -392 10 -70 9 -90 -6
-155 -21 -84 -46 -138 -87 -189 -16 -19 -29 -40 -29 -47 0 -22 126 -147 184
-182 31 -18 87 -45 124 -60 l67 -26 1380 -6 c1433 -6 1406 -5 1607 -49 821
-182 1442 -871 1538 -1705 14 -130 12 -365 -5 -487 -28 -202 -51 -288 -132
-490 -103 -257 -235 -452 -447 -664 -248 -245 -544 -413 -888 -503 -235 -61
-241 -61 -1376 -61 l-1034 0 -27 -32 c-85 -103 -153 -150 -260 -182 -61 -18
-174 -21 -240 -5 -130 30 -247 127 -308 255 -37 78 -38 81 -38 199 0 118 1
121 37 196 74 152 221 252 388 266 152 13 328 -70 411 -191 l24 -36 1065 3
c1045 3 1067 3 1157 24 214 49 385 122 554 235 115 77 304 262 381 373 300
433 362 963 167 1439 -122 300 -330 545 -609 718 -114 70 -280 142 -407 174
-213 54 -218 54 -1621 54 -853 0 -1319 4 -1362 11 -90 14 -262 73 -340 116
-187 103 -354 272 -443 449 -22 44 -34 55 -92 83 -185 92 -290 301 -249 501
40 191 174 327 369 373 41 10 142 6 197 -7z m-466 -3441 c72 -21 169 -89 217
-150 l40 -52 351 -6 c193 -4 858 -7 1478 -7 1044 0 1128 1 1140 17 7 9 41 45
76 80 124 128 295 170 468 118 104 -31 225 -142 277 -253 29 -63 31 -74 32
-188 l0 -121 -44 -87 c-61 -121 -145 -193 -273 -237 -51 -17 -80 -20 -158 -17
-81 3 -105 8 -163 35 -81 38 -140 85 -186 147 l-35 46 -1475 0 -1476 0 -59
-66 c-99 -110 -181 -152 -318 -161 -136 -9 -245 29 -344 120 -85 77 -136 181
-150 305 -24 217 149 446 371 491 63 13 164 7 231 -14z"/>
</g>
</svg>
